<?xml version="1.0" encoding="iso-8859-1"?>
<!-- Uploaded to: SVG Repo, www.svgrepo.com, Generator: SVG Repo Mixer Tools -->
<svg version="1.1" id="Layer_1" xmlns="http://www.w3.org/2000/svg" xmlns:xlink="http://www.w3.org/1999/xlink" 
	 viewBox="0 0 512 512" xml:space="preserve">
<path style="fill:#FF754F;" d="M471.149,68.085h-32.681v76.255h65.362v-43.574C503.83,82.791,489.123,68.085,471.149,68.085z"/>
<path style="fill:#FF9269;" d="M471.149,100.766v43.574H234.213V68.085h204.255C456.443,68.085,471.149,82.791,471.149,100.766z"/>
<path style="fill:#FFB082;" d="M503.83,144.34v299.574h-65.362V111.66h32.681C489.123,111.66,503.83,126.366,503.83,144.34z"/>
<path style="fill:#FF9269;" d="M438.468,443.915h65.362c0,17.974-14.706,32.681-32.681,32.681h-32.681V443.915z"/>
<path style="fill:#FFB082;" d="M8.17,443.915l231.489-119.83l231.489,119.83c0,17.974-14.706,32.681-32.681,32.681H40.851
	C22.877,476.596,8.17,461.889,8.17,443.915z"/>
<path style="fill:#FFCD9C;" d="M471.149,144.34v299.574H8.17V68.085c0-17.974,14.706-32.681,32.681-32.681h182.468
	c17.974,0,32.681,14.706,32.681,32.681v43.574h182.468C456.443,111.66,471.149,126.366,471.149,144.34z"/>
<circle cx="151.149" cy="213.482" r="8.17"/>
<circle cx="183.83" cy="213.482" r="8.17"/>
<circle cx="216.511" cy="213.482" r="8.17"/>
<path style="fill:#50D1DD;" d="M351.668,249.427c9.586,0,17.354,7.8,17.354,17.43c0,9.63-7.767,17.43-17.354,17.43h-7.114
	c9.586,0,17.354,7.8,17.354,17.43c0,9.63-7.767,17.43-17.354,17.43h-7.103c9.586,0,17.354,7.8,17.354,17.43
	c0,9.63-7.767,17.43-17.354,17.43h-7.114c9.586,0,17.354,7.8,17.354,17.43c0,9.63-7.767,17.43-17.354,17.43h-27.234l-32.681-69.719
	l32.681-69.719H351.668z"/>
<path style="fill:#78E3EC;" d="M303.104,249.427v139.438H195.813l-21.787-69.719l21.787-69.719h9.238
	c35.862,0,57.311-29.5,57.311-65.362c0-9.586,7.778-17.354,17.354-17.354c9.586,0,17.364,7.767,17.364,17.354
	c0,23.704-5.828,47.322-17.571,65.362H303.104z"/>
<rect x="151.149" y="249.431" style="fill:#2F5E88;" width="44.664" height="139.438"/>
<path d="M471.149,59.915H288.681c-4.513,0-8.17,3.658-8.17,8.17s3.657,8.17,8.17,8.17h182.468c13.515,0,24.511,10.995,24.511,24.511
	v10.915c-6.832-5.141-15.321-8.192-24.511-8.192H264.17V68.085c0-22.526-18.325-40.851-40.851-40.851H40.851
	C18.325,27.234,0,45.559,0,68.085v375.83c0,22.526,18.325,40.851,40.851,40.851h430.298c22.526,0,40.851-18.325,40.851-40.851
	V100.766C512,78.24,493.675,59.915,471.149,59.915z M495.66,443.915c0,13.516-10.996,24.511-24.511,24.511H40.851
	c-13.516,0-24.511-10.995-24.511-24.511V68.085c0-13.516,10.995-24.511,24.511-24.511h182.468c13.516,0,24.511,10.995,24.511,24.511
	v43.574c0,4.512,3.658,8.17,8.17,8.17h215.149c13.515,0,24.511,10.995,24.511,24.511V443.915z"/>
<path d="M471.149,435.745H40.851c-4.512,0-8.17,3.658-8.17,8.17c0,4.512,3.658,8.17,8.17,8.17h430.298c4.513,0,8.17-3.658,8.17-8.17
	C479.319,439.403,475.662,435.745,471.149,435.745z"/>
<path d="M195.804,241.257h-44.655c-4.512,0-8.17,3.658-8.17,8.17v139.438c0,4.512,3.658,8.17,8.17,8.17h179.19
	c14.076,0,25.527-11.484,25.527-25.6c0-5.055-1.468-9.772-3.999-13.744c6.703-4.618,11.107-12.361,11.107-21.115
	c0-5.054-1.468-9.772-3.999-13.744c6.703-4.618,11.107-12.361,11.107-21.115c0-5.054-1.468-9.772-3.999-13.744
	c6.703-4.618,11.107-12.361,11.107-21.115c0-14.116-11.451-25.6-25.526-25.6l-58.337,0.001
	c7.742-16.624,11.918-36.435,11.918-57.191c0-14.075-11.451-25.526-25.527-25.526c-14.075,0-25.526,11.451-25.526,25.526
	c0,27.545-15.379,57.191-49.144,57.191C205.051,241.257,195.821,241.257,195.804,241.257z M159.319,257.596h28.323v123.098h-28.323
	V257.596z M253.442,235.415c11.022-13.274,17.092-31.511,17.092-51.349c0-5.064,4.12-9.186,9.185-9.186
	c5.066,0,9.187,4.121,9.187,9.186c0,23.188-5.77,44.817-16.248,60.902c-1.636,2.512-1.766,5.718-0.338,8.353
	c1.428,2.635,4.185,4.277,7.183,4.277l72.161-0.001c5.064,0,9.185,4.154,9.185,9.26s-4.12,9.26-9.185,9.26h-7.108
	c-4.513,0-8.17,3.658-8.17,8.17c0,4.512,3.657,8.17,8.17,8.17c5.064,0,9.186,4.154,9.186,9.26c0,5.106-4.12,9.26-9.186,9.26h-7.109
	c-4.513,0-8.17,3.658-8.17,8.17s3.657,8.17,8.17,8.17c5.064,0,9.187,4.154,9.187,9.26c0,5.106-4.121,9.26-9.187,9.26h-7.108
	c-4.513,0-8.17,3.658-8.17,8.17c0,4.512,3.657,8.17,8.17,8.17c5.064,0,9.187,4.154,9.187,9.26c0,5.106-4.121,9.26-9.187,9.26
	H203.983V257.597h1.066C224.379,257.597,241.566,249.719,253.442,235.415z"/>
</svg>